<svg xmlns="http://www.w3.org/2000/svg" xmlns:xlink="http://www.w3.org/1999/xlink" viewBox="0 0 125.57 169.74"><defs><style>.cls-1{fill:url(#名称未設定グラデーション_6);}.cls-2{fill:url(#名称未設定グラデーション_6-2);}.cls-3{fill:url(#名称未設定グラデーション_11);}.cls-4{fill:#231916;}</style><linearGradient id="名称未設定グラデーション_6" y1="100.56" x2="63.93" y2="100.56" gradientUnits="userSpaceOnUse"><stop offset="0" stop-color="#58b763"/><stop offset="1" stop-color="#c4d700"/></linearGradient><linearGradient id="名称未設定グラデーション_6-2" y1="27" x2="63.93" y2="27" xlink:href="#名称未設定グラデーション_6"/><linearGradient id="名称未設定グラデーション_11" x1="-4.25" y1="63.78" x2="124.94" y2="63.78" gradientUnits="userSpaceOnUse"><stop offset="0" stop-color="#c4d700"/><stop offset="1" stop-color="#58b763"/></linearGradient></defs><g id="Layer_2" data-name="Layer 2"><g id="date"><path class="cls-1" d="M51.7,82c-9-7-17.26-9.55-24.81-6.93l-.06,0C21.33,77.82,5.65,94,5.65,94A17.94,17.94,0,0,0,0,107,19.68,19.68,0,0,0,5.66,121.2a19.34,19.34,0,0,0,14.15,5.85,18.08,18.08,0,0,0,13.06-5.91L60.1,93.92A3.43,3.43,0,0,1,63,93C59.93,89.82,54,83.74,51.7,82Z"/><path class="cls-2" d="M51.7,45.56c2.26-1.74,8.24-7.83,11.27-11a3.43,3.43,0,0,1-2.87-1L32.87,6.42A18.08,18.08,0,0,0,19.81.51,19.34,19.34,0,0,0,5.66,6.36,19.68,19.68,0,0,0,0,20.6,17.94,17.94,0,0,0,5.65,33.52S21.33,49.74,26.83,52.47C34.39,55.13,42.64,52.55,51.7,45.56Z"/><path class="cls-3" d="M92.49,66.41l-.07-.07a4,4,0,0,1-1.29-2.56,3.92,3.92,0,0,1,1.26-2.52l27.3-27.32a18.4,18.4,0,0,0,5.87-13.33A20.12,20.12,0,0,0,119.76,6a19.8,19.8,0,0,0-14.52-6A18.53,18.53,0,0,0,91.89,6c-.28.27-28.71,28.38-28.92,28.6-3,3.12-9,9.21-11.27,11-9.06,7-17.31,9.57-24.87,6.91,0,0,4.86,3.15,9.42,3.15a28.91,28.91,0,0,0,20.19-8.06C60.9,43.51,95,9.66,95.32,9.3a13.93,13.93,0,0,1,10-4.54A15.23,15.23,0,0,1,116.4,9.37a15.42,15.42,0,0,1,4.41,11.15,13.82,13.82,0,0,1-4.41,10L89.11,57.81a9.28,9.28,0,0,0-2.74,6A9,9,0,0,0,89,69.67l27.37,27.39a13.79,13.79,0,0,1,4.4,10,15.4,15.4,0,0,1-15.47,15.76,13.93,13.93,0,0,1-10-4.56C95,117.9,60.9,84.05,56.44,80a28.82,28.82,0,0,0-20.19-8c-4.32,0-9.42,3.15-9.42,3.15l.06,0C34.44,72.45,42.66,75,51.7,82,54,83.74,59.93,89.82,63,93l28.91,28.59a18.53,18.53,0,0,0,13.36,6h.45a19.81,19.81,0,0,0,14.07-6,20.12,20.12,0,0,0,5.8-14.6,18.42,18.42,0,0,0-5.85-13.32Z"/><path class="cls-4" d="M9.68,141.4h4.45v11.94L19.8,141.4h4.45L19,151.8l5.39,17.94H19.68l-3.77-12.63-1.78,3.6v9H9.68Z"/><path class="cls-4" d="M32.44,141.4h6l4.61,28.34H38.64l-.81-5.63v.09H32.77L32,169.74H27.83Zm4.86,18.95-2-14h-.08l-2,14Z"/><path class="cls-4" d="M48.35,141.4H52.8v11.94l5.67-11.94h4.46l-5.31,10.4L63,169.74H58.35l-3.77-12.63-1.78,3.6v9H48.35Z"/><path class="cls-4" d="M77.65,157H71.53v8.7h7.69v4.05H67.08V141.4H79.22v4H71.53v7.49h6.12V157"/><path class="cls-4" d="M85.19,141.4h6.6q3.45,0,5,1.6c1.06,1.06,1.58,2.7,1.58,4.92v1.74q0,4.41-2.91,5.59v.08a3.47,3.47,0,0,1,2.29,2,10.12,10.12,0,0,1,.66,4v5a17.27,17.27,0,0,0,.09,2,4.6,4.6,0,0,0,.4,1.47H94.38a6.22,6.22,0,0,1-.32-1.29,20.81,20.81,0,0,1-.08-2.19v-5.18a4.42,4.42,0,0,0-.63-2.72,2.66,2.66,0,0,0-2.16-.76H89.65v12.14H85.19Zm6.08,12.15a2.65,2.65,0,0,0,2-.69,3.24,3.24,0,0,0,.67-2.31v-2.19a3.53,3.53,0,0,0-.55-2.22,2.06,2.06,0,0,0-1.72-.69h-2v8.1Z"/><path class="cls-4" d="M104.47,167.93a7.45,7.45,0,0,1-1.67-5.21V141.4h4.39V163a3,3,0,0,0,.58,2.07,2.46,2.46,0,0,0,3.31,0,3,3,0,0,0,.58-2.07V141.4h4.23v21.32a7.4,7.4,0,0,1-1.68,5.21,7.46,7.46,0,0,1-9.74,0Z"/></g></g></svg>